<svg width="300" height="111" viewBox="0 0 300 111" fill="none" xmlns="http://www.w3.org/2000/svg">
<g filter="url(#filter0_d_6_2)">
<path d="M3.66787 36.679C4.33608 31.155 9.02404 27 14.5883 27H285.412C290.976 27 295.664 31.155 296.332 36.679L297.821 48.9862C299.268 60.9518 299.268 73.0482 297.821 85.0138L296.332 97.321C295.664 102.845 290.976 107 285.412 107H14.5883C9.02405 107 4.33608 102.845 3.66786 97.321L2.17909 85.0138C0.731638 73.0482 0.73164 60.9518 2.17909 48.9862L3.66787 36.679Z" fill="url(#paint0_linear_6_2)"/>
</g>
<path d="M93.336 71.132L94.036 69.508C94.456 69.76 94.904 69.956 95.38 70.096C95.8653 70.2267 96.3367 70.3013 96.794 70.32C97.2607 70.3293 97.6807 70.2827 98.054 70.18C98.4367 70.0773 98.74 69.9233 98.964 69.718C99.1973 69.5127 99.314 69.2513 99.314 68.934C99.314 68.5607 99.16 68.2853 98.852 68.108C98.544 67.9213 98.1333 67.828 97.62 67.828H95.226V66.12H97.452C97.9093 66.12 98.264 66.0267 98.516 65.84C98.7773 65.6533 98.908 65.3967 98.908 65.07C98.908 64.79 98.8147 64.566 98.628 64.398C98.4413 64.2207 98.1847 64.09 97.858 64.006C97.5407 63.922 97.1813 63.8847 96.78 63.894C96.3787 63.9033 95.9633 63.9687 95.534 64.09C95.1047 64.2113 94.694 64.3793 94.302 64.594L93.616 62.844C94.2507 62.5173 94.918 62.2933 95.618 62.172C96.3273 62.0413 97.0087 62.0087 97.662 62.074C98.3247 62.13 98.922 62.2793 99.454 62.522C99.986 62.7553 100.411 63.0633 100.728 63.446C101.045 63.8287 101.204 64.2813 101.204 64.804C101.204 65.2707 101.083 65.686 100.84 66.05C100.597 66.414 100.257 66.694 99.818 66.89C99.3887 67.086 98.894 67.184 98.334 67.184L98.39 66.68C99.0433 66.68 99.608 66.792 100.084 67.016C100.569 67.2307 100.943 67.534 101.204 67.926C101.475 68.3087 101.61 68.752 101.61 69.256C101.61 69.7227 101.484 70.1427 101.232 70.516C100.989 70.88 100.653 71.188 100.224 71.44C99.7947 71.692 99.3047 71.8787 98.754 72C98.2033 72.1213 97.6153 72.1727 96.99 72.154C96.374 72.1353 95.7533 72.0467 95.128 71.888C94.5027 71.72 93.9053 71.468 93.336 71.132ZM107.199 72L111.567 62.2H113.807L118.19 72H115.809L112.225 63.348H113.121L109.523 72H107.199ZM109.383 69.9L109.985 68.178H115.026L115.641 69.9H109.383ZM130.731 72L127.679 67.282L129.513 66.176L133.307 72H130.731ZM124.361 72V62.2H126.615V72H124.361ZM125.957 68.052V66.162H129.373V68.052H125.957ZM129.723 67.352L127.637 67.1L130.815 62.2H133.209L129.723 67.352ZM137.958 72L142.326 62.2H144.566L148.948 72H146.568L142.984 63.348H143.88L140.282 72H137.958ZM140.142 69.9L140.744 68.178H145.784L146.4 69.9H140.142ZM154.266 71.132L154.966 69.508C155.386 69.76 155.834 69.956 156.31 70.096C156.795 70.2267 157.267 70.3013 157.724 70.32C158.191 70.3293 158.611 70.2827 158.984 70.18C159.367 70.0773 159.67 69.9233 159.894 69.718C160.127 69.5127 160.244 69.2513 160.244 68.934C160.244 68.5607 160.09 68.2853 159.782 68.108C159.474 67.9213 159.063 67.828 158.55 67.828H156.156V66.12H158.382C158.839 66.12 159.194 66.0267 159.446 65.84C159.707 65.6533 159.838 65.3967 159.838 65.07C159.838 64.79 159.745 64.566 159.558 64.398C159.371 64.2207 159.115 64.09 158.788 64.006C158.471 63.922 158.111 63.8847 157.71 63.894C157.309 63.9033 156.893 63.9687 156.464 64.09C156.035 64.2113 155.624 64.3793 155.232 64.594L154.546 62.844C155.181 62.5173 155.848 62.2933 156.548 62.172C157.257 62.0413 157.939 62.0087 158.592 62.074C159.255 62.13 159.852 62.2793 160.384 62.522C160.916 62.7553 161.341 63.0633 161.658 63.446C161.975 63.8287 162.134 64.2813 162.134 64.804C162.134 65.2707 162.013 65.686 161.77 66.05C161.527 66.414 161.187 66.694 160.748 66.89C160.319 67.086 159.824 67.184 159.264 67.184L159.32 66.68C159.973 66.68 160.538 66.792 161.014 67.016C161.499 67.2307 161.873 67.534 162.134 67.926C162.405 68.3087 162.54 68.752 162.54 69.256C162.54 69.7227 162.414 70.1427 162.162 70.516C161.919 70.88 161.583 71.188 161.154 71.44C160.725 71.692 160.235 71.8787 159.684 72C159.133 72.1213 158.545 72.1727 157.92 72.154C157.304 72.1353 156.683 72.0467 156.058 71.888C155.433 71.72 154.835 71.468 154.266 71.132ZM168.13 72L172.498 62.2H174.738L179.12 72H176.74L173.156 63.348H174.052L170.454 72H168.13ZM170.314 69.9L170.916 68.178H175.956L176.572 69.9H170.314ZM186.941 72V63.53L187.459 64.048H183.819V62.2H192.317V64.048H188.677L189.181 63.53V72H186.941ZM203.387 65.42C204.572 65.42 205.487 65.686 206.131 66.218C206.775 66.7407 207.097 67.5293 207.097 68.584C207.097 69.704 206.738 70.5533 206.019 71.132C205.31 71.7107 204.325 72 203.065 72H198.641V62.2H200.895V65.42H203.387ZM202.939 70.32C203.518 70.32 203.975 70.1753 204.311 69.886C204.647 69.5967 204.815 69.1767 204.815 68.626C204.815 68.0847 204.647 67.6973 204.311 67.464C203.984 67.2213 203.527 67.1 202.939 67.1H200.895V70.32H202.939Z" fill="black"/>
<g filter="url(#filter1_d_6_2)">
<rect x="54" y="20.161" width="193.303" height="25" rx="4" transform="rotate(-4 54 20.161)" fill="#EF3024"/>
</g>
<path d="M69.2496 35.9595L68.6637 27.5799L69.3939 27.5289L73.6816 33.797L73.2985 33.8238L76.6362 27.0224L77.3664 26.9714L77.9524 35.3509L77.1025 35.4103L76.6094 28.3596L76.8129 28.3453L73.736 34.5751L73.317 34.6044L69.3791 28.8651L69.6065 28.8492L70.0996 35.9L69.2496 35.9595ZM86.7017 34.7391L86.2622 28.4544L87.1122 28.395L87.5516 34.6797L86.7017 34.7391ZM82.9336 30.9126C83.7242 30.8654 84.339 30.9988 84.778 31.3129C85.217 31.6271 85.4591 32.1074 85.5043 32.7538C85.5512 33.4241 85.3637 33.9545 84.9419 34.3449C84.5201 34.7353 83.894 34.9555 83.0634 35.0055L80.5727 35.1677L80.1332 28.883L80.9831 28.8236L81.1363 31.0142L82.9336 30.9126ZM82.9584 34.3633C83.5495 34.33 83.9843 34.1833 84.2628 33.9232C84.5488 33.6546 84.6753 33.2849 84.6424 32.814C84.6095 32.3432 84.4378 32.0104 84.1275 31.8155C83.8166 31.6127 83.3616 31.5283 82.7625 31.5621L81.1807 31.6487L81.3766 34.4498L82.9584 34.3633ZM93.1046 34.2914L92.6651 28.0067L95.4423 27.8125C96.1526 27.7628 96.7207 27.8594 97.1467 28.1023C97.5806 28.3446 97.816 28.7292 97.8529 29.2559C97.8886 29.7666 97.7207 30.1753 97.3492 30.482C96.9771 30.7807 96.4718 30.9523 95.8334 30.997L95.9834 30.7339C96.7336 30.6814 97.294 30.7826 97.6647 31.0373C98.0354 31.2921 98.2391 31.6828 98.2759 32.2095C98.3139 32.7522 98.144 33.1891 97.7661 33.5203C97.3957 33.8429 96.7956 34.0333 95.9656 34.0913L93.1046 34.2914ZM93.8837 33.5632L95.8828 33.4234C96.4175 33.3861 96.8146 33.2741 97.0743 33.0875C97.3413 32.8924 97.4614 32.6033 97.4346 32.2203C97.4079 31.8372 97.2646 31.5665 97.005 31.4083C96.7453 31.25 96.3481 31.1895 95.8134 31.2269L93.7305 31.3726L93.8837 33.5632ZM93.6861 30.7381L95.5775 30.6059C96.0643 30.5718 96.429 30.4541 96.6715 30.2527C96.9221 30.0507 97.035 29.7742 97.0105 29.423C96.9859 29.0719 96.8358 28.8177 96.5602 28.6606C96.2925 28.5029 95.9153 28.441 95.4285 28.4751L93.5371 28.6073L93.6861 30.7381ZM104.29 33.5092L104.193 32.1206L104.141 31.8957L103.979 29.5733C103.941 29.0386 103.761 28.6382 103.438 28.3721C103.122 28.1055 102.669 27.9928 102.079 28.0341C101.672 28.0626 101.289 28.1575 100.932 28.3188C100.574 28.4801 100.275 28.6815 100.036 28.9228L99.6083 28.3151C99.9086 28.0215 100.277 27.7872 100.714 27.6123C101.15 27.4294 101.616 27.3207 102.111 27.2861C102.925 27.2291 103.565 27.3888 104.033 27.7651C104.508 28.1329 104.774 28.7278 104.831 29.5498L105.104 33.4523L104.29 33.5092ZM102.128 33.7206C101.657 33.7535 101.24 33.7064 100.879 33.5793C100.524 33.4437 100.246 33.2467 100.043 32.9882C99.8403 32.7217 99.7262 32.4089 99.701 32.0497C99.6782 31.7225 99.7333 31.422 99.8665 31.148C100.007 30.8655 100.247 30.6322 100.587 30.448C100.935 30.2553 101.408 30.138 102.006 30.0962L104.173 29.9447L104.217 30.5791L102.075 30.729C101.468 30.7714 101.053 30.9087 100.828 31.1409C100.612 31.3726 100.515 31.648 100.537 31.9672C100.562 32.3263 100.722 32.6039 101.017 32.7998C101.311 32.9958 101.71 33.0761 102.212 33.041C102.691 33.0075 103.095 32.871 103.423 32.6316C103.758 32.3835 103.991 32.0465 104.122 31.6203L104.354 32.1935C104.224 32.6196 103.968 32.9704 103.586 33.2457C103.212 33.5204 102.726 33.6787 102.128 33.7206ZM110.004 33.1698C109.382 33.2133 108.814 33.1167 108.3 32.8799C107.794 32.6347 107.384 32.2824 107.071 31.8231C106.758 31.3558 106.579 30.8109 106.536 30.1884C106.492 29.558 106.593 28.9936 106.839 28.4952C107.084 27.9968 107.441 27.595 107.909 27.2896C108.385 26.9837 108.934 26.8089 109.557 26.7654C110.091 26.728 110.581 26.798 111.027 26.9753C111.472 27.1527 111.833 27.4402 112.11 27.8379L111.505 28.3132C111.267 28.0091 110.984 27.7923 110.654 27.663C110.324 27.5337 109.972 27.4822 109.596 27.5084C109.15 27.5397 108.754 27.6716 108.409 27.9042C108.064 28.1288 107.801 28.4319 107.619 28.8136C107.437 29.1952 107.363 29.6334 107.398 30.1282C107.432 30.623 107.566 31.0467 107.799 31.3992C108.033 31.7518 108.336 32.0193 108.71 32.2017C109.083 32.3761 109.493 32.4477 109.94 32.4164C110.315 32.3902 110.657 32.2901 110.965 32.1162C111.274 31.9422 111.525 31.6921 111.719 31.3658L112.383 31.7524C112.164 32.1767 111.847 32.5116 111.431 32.7572C111.015 32.9949 110.539 33.1324 110.004 33.1698ZM117.245 32.6033L116.805 26.3187L122.456 25.9236L122.895 32.2082L122.045 32.2676L121.642 26.4977L121.873 26.7101L117.492 27.0165L117.691 26.774L118.095 32.5439L117.245 32.6033ZM128.559 31.8723C128.017 31.9102 127.517 31.8208 127.061 31.6041C126.604 31.3794 126.228 31.0409 125.931 30.5885C125.643 30.1275 125.474 29.5538 125.426 28.8675C125.378 28.1812 125.465 27.5937 125.688 27.105C125.91 26.6083 126.231 26.2209 126.653 25.9428C127.075 25.6647 127.561 25.5064 128.112 25.4679C128.71 25.426 129.254 25.5243 129.744 25.7627C130.241 25.9926 130.643 26.3415 130.948 26.8093C131.253 27.2692 131.427 27.8143 131.471 28.4448C131.516 29.0832 131.419 29.6513 131.182 30.1492C130.944 30.647 130.595 31.0483 130.135 31.3531C129.683 31.6574 129.158 31.8304 128.559 31.8723ZM125.473 34.3616L124.872 25.7546L125.686 25.6977L125.818 27.5891L125.822 28.8519L126.03 30.1124L126.323 34.3022L125.473 34.3616ZM128.447 31.1223C128.894 31.091 129.286 30.9634 129.623 30.7393C129.96 30.5073 130.219 30.2004 130.401 29.8188C130.582 29.4292 130.655 28.991 130.621 28.5042C130.587 28.0174 130.454 27.5977 130.221 27.2451C129.987 26.8925 129.688 26.6247 129.322 26.4418C128.957 26.2589 128.55 26.183 128.104 26.2143C127.657 26.2455 127.261 26.3775 126.916 26.6101C126.58 26.8421 126.32 27.1489 126.139 27.5306C125.965 27.9116 125.895 28.3455 125.929 28.8324C125.963 29.3192 126.093 29.7431 126.319 30.1043C126.552 30.4569 126.851 30.7246 127.217 30.9076C127.59 31.082 128 31.1535 128.447 31.1223ZM136.107 31.3444C135.501 31.3869 134.945 31.2894 134.439 31.0521C133.941 30.8063 133.535 30.4537 133.222 29.9944C132.909 29.5271 132.73 28.9823 132.687 28.3598C132.643 27.7293 132.744 27.1649 132.99 26.6665C133.235 26.1682 133.588 25.7666 134.048 25.4618C134.508 25.157 135.045 24.9831 135.66 24.9401C136.282 24.8966 136.842 24.9937 137.34 25.2316C137.846 25.4689 138.251 25.8174 138.556 26.2773C138.869 26.7366 139.047 27.2815 139.091 27.9119C139.135 28.5344 139.034 29.0988 138.789 29.6052C138.551 30.103 138.198 30.5086 137.731 30.8219C137.263 31.1273 136.722 31.3015 136.107 31.3444ZM136.055 30.5903C136.51 30.5585 136.906 30.4305 137.243 30.2065C137.579 29.9744 137.835 29.6679 138.009 29.2868C138.19 28.8972 138.263 28.459 138.229 27.9722C138.195 27.4774 138.061 27.0537 137.828 26.7011C137.603 26.348 137.307 26.0839 136.942 25.909C136.577 25.726 136.17 25.6502 135.724 25.6814C135.277 25.7127 134.885 25.8443 134.548 26.0764C134.211 26.3005 133.951 26.6033 133.77 26.9849C133.588 27.3665 133.514 27.8047 133.549 28.2995C133.583 28.7863 133.717 29.21 133.95 29.5706C134.184 29.9232 134.483 30.191 134.849 30.3739C135.214 30.5488 135.616 30.621 136.055 30.5903ZM145.737 30.611L142.933 27.6794L143.61 27.211L146.742 30.5406L145.737 30.611ZM141.128 30.9332L140.688 24.6486L141.538 24.5892L141.978 30.8738L141.128 30.9332ZM141.519 28.0911L141.468 27.3608L143.491 27.2194L143.542 27.9496L141.519 28.0911ZM143.716 27.6848L142.917 27.6204L145.201 24.333L146.123 24.2686L143.716 27.6848ZM150.451 30.3414C149.845 30.3838 149.289 30.2864 148.783 30.0491C148.285 29.8033 147.879 29.4507 147.566 28.9914C147.253 28.5241 147.074 27.9792 147.031 27.3568C146.987 26.7263 147.088 26.1619 147.333 25.6635C147.579 25.1652 147.932 24.7636 148.392 24.4588C148.852 24.1539 149.389 23.98 150.004 23.9371C150.626 23.8935 151.186 23.9907 151.684 24.2286C152.19 24.4659 152.595 24.8144 152.9 25.2743C153.213 25.7336 153.391 26.2785 153.435 26.9089C153.479 27.5314 153.378 28.0958 153.133 28.6022C152.895 29.1 152.542 29.5055 152.075 29.8189C151.607 30.1243 151.066 30.2985 150.451 30.3414ZM150.399 29.5873C150.854 29.5555 151.25 29.4275 151.587 29.2035C151.923 28.9714 152.179 28.6649 152.352 28.2838C152.534 27.8942 152.607 27.456 152.573 26.9692C152.539 26.4744 152.405 26.0507 152.172 25.6981C151.946 25.345 151.651 25.0809 151.286 24.9059C150.921 24.723 150.514 24.6472 150.067 24.6784C149.62 24.7097 149.229 24.8413 148.892 25.0734C148.555 25.2974 148.295 25.6003 148.114 25.9819C147.932 26.3635 147.858 26.8017 147.893 27.2965C147.927 27.7833 148.061 28.207 148.294 28.5676C148.528 28.9202 148.827 29.1879 149.193 29.3709C149.558 29.5458 149.96 29.618 150.399 29.5873ZM155.472 29.9302L155.032 23.6456L155.882 23.5861L156.076 26.3633L160.039 26.0863L159.845 23.3091L160.695 23.2496L161.134 29.5343L160.284 29.5937L160.09 26.8165L156.128 27.0936L156.322 29.8708L155.472 29.9302ZM166.187 29.241C165.565 29.2846 164.997 29.188 164.483 28.9512C163.977 28.706 163.567 28.3537 163.254 27.8944C162.941 27.4271 162.763 26.8822 162.719 26.2597C162.675 25.6293 162.776 25.0649 163.022 24.5665C163.268 24.0681 163.624 23.6663 164.092 23.3609C164.568 23.0549 165.117 22.8802 165.74 22.8367C166.274 22.7993 166.764 22.8693 167.21 23.0466C167.655 23.224 168.016 23.5115 168.293 23.9092L167.688 24.3845C167.451 24.0804 167.167 23.8636 166.837 23.7343C166.507 23.605 166.155 23.5535 165.78 23.5797C165.333 23.611 164.937 23.7429 164.592 23.9755C164.247 24.2001 163.984 24.5032 163.802 24.8849C163.62 25.2665 163.546 25.7047 163.581 26.1995C163.616 26.6943 163.749 27.1179 163.983 27.4705C164.216 27.8231 164.519 28.0906 164.893 28.273C165.266 28.4474 165.676 28.519 166.123 28.4877C166.498 28.4615 166.84 28.3614 167.148 28.1875C167.457 28.0135 167.708 27.7634 167.902 27.4371L168.566 27.8237C168.347 28.248 168.03 28.5829 167.614 28.8285C167.198 29.0662 166.722 29.2037 166.187 29.241ZM170.476 31.2749C170.18 31.2955 169.894 31.2674 169.616 31.1907C169.346 31.1133 169.108 30.9856 168.903 30.8074L169.254 30.1453C169.424 30.2858 169.604 30.3895 169.793 30.4565C169.991 30.5309 170.205 30.56 170.437 30.5438C170.716 30.5243 170.95 30.4277 171.138 30.2542C171.335 30.088 171.512 29.803 171.668 29.3991L172.01 28.4489L172.097 28.3106L174.275 22.3L175.113 22.2414L172.457 29.5004C172.31 29.9196 172.137 30.2565 171.938 30.511C171.747 30.7649 171.532 30.9484 171.291 31.0615C171.051 31.1825 170.779 31.2537 170.476 31.2749ZM171.998 28.9551L168.649 22.6934L169.535 22.6315L172.5 28.2222L171.998 28.9551ZM175.458 28.5206L175.466 27.7862C175.523 27.7903 175.576 27.7987 175.625 27.8113C175.681 27.8153 175.729 27.816 175.769 27.8132C176.024 27.7953 176.221 27.6853 176.359 27.4832C176.506 27.2805 176.608 27.0168 176.665 26.692C176.723 26.3672 176.753 26.0041 176.757 25.6029C176.761 25.1936 176.76 24.7847 176.756 24.376L176.707 22.1299L181.316 21.8077L181.755 28.0923L180.905 28.1517L180.5 22.3579L180.733 22.5942L177.309 22.8336L177.495 22.556L177.526 24.3823C177.54 24.9266 177.532 25.4484 177.503 25.9477C177.482 26.4464 177.421 26.8877 177.319 27.2718C177.226 27.6552 177.079 27.9622 176.878 28.1927C176.677 28.4153 176.409 28.5383 176.074 28.5617C175.978 28.5684 175.878 28.5674 175.773 28.5587C175.676 28.5495 175.571 28.5368 175.458 28.5206ZM186.592 23.6641C187.383 23.6168 187.993 23.7506 188.424 24.0653C188.863 24.3794 189.106 24.8597 189.151 25.5061C189.198 26.1765 189.01 26.7068 188.588 27.0972C188.175 27.487 187.548 27.7073 186.71 27.7579L184.171 27.9234L183.732 21.6387L184.582 21.5793L184.735 23.7699L186.592 23.6641ZM186.617 27.1148C187.2 27.082 187.631 26.9356 187.909 26.6756C188.195 26.407 188.322 26.0372 188.289 25.5664C188.256 25.0955 188.084 24.7627 187.774 24.5679C187.463 24.3651 187.012 24.2803 186.421 24.3136L184.779 24.4044L184.975 27.2055L186.617 27.1148ZM191.482 27.4121L191.079 21.6422L191.31 21.8546L188.713 22.0362L188.661 21.294L194.275 20.9015L194.327 21.6436L191.729 21.8253L191.929 21.5828L192.332 27.3527L191.482 27.4121ZM195.943 27.1002L195.504 20.8155L196.354 20.7561L196.703 25.7479L200.555 20.4623L201.31 20.4095L201.749 26.6942L200.899 26.7536L200.549 21.7498L196.709 27.0466L195.943 27.1002ZM207.433 26.3569C206.89 26.3948 206.391 26.3054 205.935 26.0887C205.478 25.8641 205.101 25.5255 204.805 25.0731C204.516 24.6121 204.348 24.0384 204.3 23.3521C204.252 22.6658 204.339 22.0783 204.562 21.5896C204.783 21.0929 205.105 20.7055 205.527 20.4274C205.949 20.1493 206.435 19.991 206.985 19.9525C207.584 19.9107 208.128 20.0089 208.618 20.2473C209.115 20.4772 209.516 20.8261 209.822 21.2939C210.127 21.7538 210.301 22.2989 210.345 22.9294C210.39 23.5678 210.293 24.136 210.055 24.6338C209.817 25.1316 209.469 25.5329 209.009 25.8377C208.557 26.142 208.032 26.315 207.433 26.3569ZM204.347 28.8462L203.745 20.2392L204.559 20.1823L204.692 22.0737L204.696 23.3365L204.904 24.597L205.197 28.7868L204.347 28.8462ZM207.321 25.6069C207.767 25.5756 208.16 25.448 208.497 25.2239C208.833 24.9919 209.093 24.685 209.274 24.3034C209.456 23.9138 209.529 23.4756 209.495 22.9888C209.461 22.502 209.328 22.0823 209.094 21.7297C208.861 21.3771 208.562 21.1094 208.196 20.9264C207.831 20.7435 207.424 20.6676 206.977 20.6989C206.53 20.7301 206.135 20.8621 205.79 21.0947C205.453 21.3267 205.194 21.6335 205.012 22.0152C204.839 22.3962 204.769 22.8301 204.803 23.317C204.837 23.8038 204.967 24.2277 205.192 24.5889C205.426 24.9415 205.725 25.2092 206.091 25.3922C206.464 25.5666 206.874 25.6381 207.321 25.6069ZM212.49 28.3369C212.195 28.3576 211.908 28.3295 211.63 28.2527C211.36 28.1754 211.123 28.0476 210.918 27.8695L211.269 27.2074C211.439 27.3479 211.618 27.4516 211.808 27.5186C212.005 27.5929 212.22 27.6221 212.451 27.6059C212.731 27.5863 212.964 27.4898 213.153 27.3162C213.35 27.1501 213.526 26.8651 213.682 26.4612L214.025 25.511L214.112 25.3726L216.29 19.362L217.128 19.3034L214.471 26.5624C214.324 26.9817 214.151 27.3186 213.953 27.5731C213.762 27.827 213.546 28.0105 213.305 28.1235C213.065 28.2446 212.794 28.3157 212.49 28.3369ZM214.012 26.0171L210.663 19.7555L211.549 19.6935L214.514 25.2843L214.012 26.0171ZM221.413 25.3793C220.759 25.425 220.175 25.3295 219.661 25.0928C219.147 24.8481 218.733 24.4961 218.42 24.0368C218.107 23.5695 217.929 23.0246 217.885 22.4021C217.842 21.7797 217.935 21.2198 218.165 20.7226C218.403 20.2247 218.743 19.824 219.187 19.5203C219.639 19.208 220.156 19.0316 220.738 18.9908C221.329 18.9495 221.861 19.0486 222.335 19.2882C222.816 19.5192 223.205 19.8689 223.503 20.3372C223.8 20.7977 223.97 21.3431 224.014 21.9736C224.017 22.0135 224.016 22.0576 224.011 22.1061C224.014 22.146 224.017 22.1899 224.021 22.2378L218.55 22.6203L218.506 21.9858L223.521 21.6351L223.204 21.9099C223.172 21.455 223.044 21.059 222.82 20.7218C222.603 20.3761 222.32 20.1152 221.971 19.9391C221.622 19.763 221.228 19.6903 220.789 19.721C220.358 19.7512 219.978 19.878 219.649 20.1015C219.32 20.325 219.072 20.623 218.906 20.9955C218.739 21.3681 218.672 21.7857 218.704 22.2486L218.714 22.3803C218.747 22.8591 218.88 23.2748 219.114 23.6274C219.354 23.9715 219.669 24.2342 220.059 24.4154C220.456 24.5881 220.898 24.6575 221.385 24.6234C221.768 24.5967 222.118 24.504 222.436 24.3454C222.761 24.1863 223.034 23.9588 223.254 23.6627L223.771 24.1799C223.516 24.5346 223.182 24.8145 222.772 25.0197C222.369 25.2242 221.916 25.3441 221.413 25.3793ZM226.116 24.9903L225.676 18.7057L226.538 18.6454L229.725 23.2704L229.365 23.2955L231.925 18.2687L232.715 18.2135L233.155 24.4981L232.376 24.5525L232.005 19.2375L232.165 19.2984L229.773 23.9647L229.39 23.9915L226.344 19.6574L226.521 19.6089L226.894 24.9359L226.116 24.9903Z" fill="white"/>
<defs>
<filter id="filter0_d_6_2" x="1.09351" y="27" width="297.813" height="84" filterUnits="userSpaceOnUse" color-interpolation-filters="sRGB">
<feFlood flood-opacity="0" result="BackgroundImageFix"/>
<feColorMatrix in="SourceAlpha" type="matrix" values="0 0 0 0 0 0 0 0 0 0 0 0 0 0 0 0 0 0 127 0" result="hardAlpha"/>
<feOffset dy="4"/>
<feComposite in2="hardAlpha" operator="out"/>
<feColorMatrix type="matrix" values="0 0 0 0 1 0 0 0 0 0.721925 0 0 0 0 0 0 0 0 1 0"/>
<feBlend mode="normal" in2="BackgroundImageFix" result="effect1_dropShadow_6_2"/>
<feBlend mode="normal" in="SourceGraphic" in2="effect1_dropShadow_6_2" result="shape"/>
</filter>
<filter id="filter1_d_6_2" x="54.2691" y="0.946014" width="214.038" height="57.885" filterUnits="userSpaceOnUse" color-interpolation-filters="sRGB">
<feFlood flood-opacity="0" result="BackgroundImageFix"/>
<feColorMatrix in="SourceAlpha" type="matrix" values="0 0 0 0 0 0 0 0 0 0 0 0 0 0 0 0 0 0 127 0" result="hardAlpha"/>
<feOffset dx="10" dy="4"/>
<feGaussianBlur stdDeviation="5"/>
<feComposite in2="hardAlpha" operator="out"/>
<feColorMatrix type="matrix" values="0 0 0 0 0 0 0 0 0 0 0 0 0 0 0 0 0 0 0.25 0"/>
<feBlend mode="normal" in2="BackgroundImageFix" result="effect1_dropShadow_6_2"/>
<feBlend mode="normal" in="SourceGraphic" in2="effect1_dropShadow_6_2" result="shape"/>
</filter>
<linearGradient id="paint0_linear_6_2" x1="295.161" y1="67" x2="4.83871" y2="67" gradientUnits="userSpaceOnUse">
<stop stop-color="#FCAE01"/>
<stop offset="0.667622" stop-color="#FFDC7F"/>
<stop offset="1" stop-color="#FFC740"/>
</linearGradient>
</defs>
</svg>
